PathFileType	4	(X/Y/Z)	./resultDataOpenSim/trcMotMarkerGrf/sub09/qtm-02-05.trc
DataRate	CameraRate	NumFrames	NumMarkers	Units	OrigDataRate	OrigDataStartFrame	OrigNumFrames
250.000000	250.000000	11	24	m	250.000000	1	470
Frame#	Time	L.Toe.Tip			R.Toe.Tip			L.Ankle.Lat			R.Ankle.Lat			L.Ankle.Med			R.Ankle.Med			L.Heel			R.Heel			L.Knee.Lat			R.Knee.Lat			L.Knee.Med			R.Knee.Med			L.Thigh.Upper			R.Thigh.Upper			L.ASIS			R.ASIS			V.Sacral			L.Acromium			R.Acromium			C7			L.Elbow			R.Elbow			L.Wrist.Lat			R.Wrist.Lat
		X1	Y1	Z1	X2	Y2	Z2	X3	Y3	Z3	X4	Y4	Z4	X5	Y5	Z5	X6	Y6	Z6	X7	Y7	Z7	X8	Y8	Z8	X9	Y9	Z9	X10	Y10	Z10	X11	Y11	Z11	X12	Y12	Z12	X13	Y13	Z13	X14	Y14	Z14	X15	Y15	Z15	X16	Y16	Z16	X17	Y17	Z17	X18	Y18	Z18	X19	Y19	Z19	X20	Y20	Z20	X21	Y21	Z21	X22	Y22	Z22	X23	Y23	Z23	X24	Y24	Z24

1	0	-1.5128997	0.037078049	0.0082192324	-1.0842476	0.069882356	0.12439063	-1.6620425	0.074039812	-0.029674284	-1.236156	0.075905709	0.15588371	-1.6360501	0.093323189	0.063087395	-1.2225178	0.11332009	0.064704066	NaN	NaN	NaN	-1.2930904	0.047119058	0.1022376	-1.5313824	0.47023779	-0.089980346	-1.2142593	0.53642705	0.19310035	-1.5309199	0.4731451	0.03454813	-1.22291	0.51607034	0.067901409	-1.44825	0.88501814	-0.14182768	-1.4174846	0.88818365	0.22920217	-1.3465755	0.96119537	-0.087292621	-1.3402988	0.96732081	0.1522115	-1.5031539	1.0305069	0.043814847	-1.3053204	1.4183821	-0.11875086	-1.3407754	1.4232044	0.20608686	-1.3823924	1.4727976	0.035986724	-1.4142156	1.0603328	-0.20072239	NaN	NaN	NaN	-1.1692383	0.93624031	-0.18863819	-1.4178237	0.85667619	0.33368837
2	0.004	-1.5128264	0.037077435	0.0080799378	-1.0650406	0.072167914	0.12439507	-1.6621644	0.074556909	-0.029112724	-1.216266	0.074932466	0.15606339	-1.6355381	0.093792079	0.063582665	-1.2038477	0.11253172	0.064897654	NaN	NaN	NaN	-1.2730328	0.044226546	0.10229348	-1.5296164	0.47024938	-0.090284666	-1.2075197	0.53552367	0.19353448	-1.5291895	0.47314255	0.034362499	-1.2159314	0.51493971	0.068421937	-1.4425357	0.88403159	-0.14164981	-1.4116736	0.88670176	0.22954154	-1.340474	0.95992015	-0.087110264	-1.334143	0.96606881	0.15243767	-1.4971524	1.0289743	0.044003933	-1.2996246	1.4172547	-0.11852648	-1.3353956	1.4219046	0.20639707	-1.3771321	1.4715899	0.035589772	-1.4070237	1.0585454	-0.20197308	NaN	NaN	NaN	-1.1606019	0.93726535	-0.18782484	-1.4116632	0.85515734	0.33399264
3	0.008	-1.5127583	0.037045484	0.0079983293	-1.0459207	0.074636582	0.12443505	-1.6622348	0.075108387	-0.028562675	-1.1965743	0.074027483	0.15625718	-1.6356303	0.094112413	0.064304032	-1.1854387	0.11179386	0.065089469	NaN	NaN	NaN	-1.2530645	0.041503981	0.10238712	-1.5278786	0.47027379	-0.090559996	-1.2009237	0.53453166	0.19405121	-1.527588	0.47313136	0.034247487	-1.2089801	0.51372356	0.068925102	-1.4368249	0.88301133	-0.14138211	-1.4058032	0.88522264	0.22986199	-1.3343634	0.95864744	-0.086930291	-1.3280106	0.96475647	0.15266031	-1.4911393	1.0274128	0.044188776	-1.2938977	1.4160848	-0.11828104	-1.3299262	1.4205677	0.20668771	-1.3717211	1.4704172	0.03589713	-1.3997821	1.0567173	-0.2027939	NaN	NaN	NaN	-1.151983	0.93824446	-0.18699674	-1.4054483	0.85361699	0.33430262
4	0.012	-1.5126972	0.036982013	0.0079752542	-1.0269783	0.077375786	0.12453356	-1.6622244	0.075720867	-0.028053556	-1.1773422	0.073169517	0.15642028	-1.6365957	0.094239959	0.065343804	-1.1674024	0.11116242	0.065286479	NaN	NaN	NaN	-1.2332369	0.039060127	0.10253154	-1.5261357	0.4703069	-0.090785509	-1.1945615	0.53338217	0.19466953	-1.5260534	0.4731131	0.034248179	-1.2020452	0.51238202	0.069379171	-1.4311366	0.88194744	-0.14102013	-1.399845	0.88372395	0.23016111	-1.3282252	0.95736258	-0.08675356	-1.3218859	0.96337168	0.15287501	-1.4851228	1.0258069	0.044310208	-1.288126	1.4148541	-0.11800969	-1.3243389	1.4191764	0.20695563	-1.3660725	1.4693013	0.037079913	-1.3924652	1.0548262	-0.20309891	NaN	NaN	NaN	-1.1433899	0.93914766	-0.18615659	-1.3991558	0.85203871	0.33461204
5	0.016	-1.5126439	0.036906178	0.00797525	-1.008318	0.080389023	0.12470146	-1.6621409	0.076395404	-0.027618464	-1.1587201	0.072364251	0.15652088	-1.6379096	0.09434217	0.066461059	-1.1497711	0.1106848	0.065497839	NaN	NaN	NaN	-1.2136213	0.036934264	0.10271915	-1.5243042	0.47034094	-0.090959257	-1.1884308	0.53206323	0.19534674	-1.5243895	0.4731089	0.034345094	-1.1951139	0.51092246	0.069770592	-1.4254813	0.88084549	-0.14059255	-1.3938103	0.88218864	0.23044449	-1.3220596	0.95605275	-0.086576675	-1.3157512	0.96194609	0.15308141	-1.4791491	1.0241561	0.044250786	-1.2823185	1.4135734	-0.11773127	-1.318648	1.4177408	0.20721044	-1.3602321	1.4682135	0.03870829	-1.3850978	1.0528944	-0.20307867	NaN	NaN	NaN	-1.1348419	0.93995924	-0.18531927	-1.3927904	0.85041984	0.33491089
6	0.02	-1.5125977	0.036827294	0.0079689987	-0.98997396	0.08367027	0.12494143	-1.6620154	0.077106761	-0.027269174	-1.1406112	0.071716255	0.15659294	-1.6385981	0.094684473	0.067225892	-1.1325084	0.11040119	0.065726774	NaN	NaN	NaN	-1.1942815	0.035119738	0.10294161	-1.5222923	0.47037502	-0.09108989	-1.1824384	0.53061519	0.19601849	-1.5224355	0.47314625	0.034474759	-1.1881806	0.50937074	0.070101869	-1.419832	0.87971228	-0.14010611	-1.3877226	0.88062109	0.23071791	-1.3158794	0.9547264	-0.086396342	-1.3096001	0.9605094	0.15328091	-1.473271	1.0224528	0.043904662	-1.276475	1.4122617	-0.11746786	-1.3128757	1.4162819	0.20746228	-1.3542906	1.4670625	0.040225883	-1.3777141	1.0509683	-0.20293642	NaN	NaN	NaN	-1.1263522	0.94067994	-0.18449353	-1.3863406	0.84876738	0.3351957
7	0.024	-1.5125528	0.036740397	0.0079450848	-0.97194025	0.087209478	0.12525115	-1.6618695	0.077833605	-0.026992248	-1.1228515	0.071337733	0.15669006	-1.6382455	0.095358181	0.067458155	-1.1155342	0.1103506	0.065972048	NaN	NaN	NaN	-1.175273	0.033594003	0.10318802	-1.5200447	0.47040803	-0.091181021	-1.176465	0.52909968	0.19661469	-1.5201605	0.47322434	0.03459695	-1.1812374	0.50775654	0.070359338	-1.4141509	0.87855941	-0.1395853	-1.3816013	0.87903075	0.23098894	-1.3096982	0.9533974	-0.086215813	-1.303425	0.9590768	0.15347566	-1.4674656	1.0206907	0.043361798	-1.2705876	1.4109317	-0.11721736	-1.3070603	1.4148108	0.2077188	-1.3482532	1.4657901	0.041506661	-1.3703301	1.0490745	-0.20277114	NaN	NaN	NaN	-1.117928	0.94132088	-0.18367908	-1.3797932	0.84709041	0.33547045
8	0.028	-1.5125026	0.036644761	0.0079066675	-0.9542728	0.090947764	0.12563036	-1.6616992	0.078583771	-0.026766922	-1.1053632	0.071265583	0.15684481	-1.6371851	0.096242206	0.067315111	-1.098815	0.11054001	0.066233852	NaN	NaN	NaN	-1.1566511	0.03233307	0.103437	-1.5175566	0.47043495	-0.091232523	-1.170394	0.52756815	0.19707631	-1.5176311	0.47330619	0.034706613	-1.1742692	0.50610521	0.070526555	-1.4084127	0.87739924	-0.13908749	-1.3754469	0.87741731	0.23126511	-1.3035166	0.95206259	-0.086037922	-1.2971986	0.95765977	0.1536721	-1.4616023	1.018889	0.042935619	-1.2646555	1.4095875	-0.11695618	-1.3012322	1.4133251	0.20799016	-1.3420545	1.4644413	0.042841388	-1.3629498	1.0472093	-0.20261895	NaN	NaN	NaN	-1.1095728	0.94188855	-0.18287195	-1.3731751	0.84539687	0.33574471
9	0.032	-1.5124471	0.036553022	0.0078648368	-0.93711572	0.094770392	0.12606484	-1.6614852	0.079373752	-0.026583511	-1.0881688	0.071461269	0.1570608	-1.6358983	0.097177322	0.06702953	-1.0824042	0.11092185	0.066509655	NaN	NaN	NaN	-1.1384646	0.03131009	0.10366993	-1.5148474	0.47044732	-0.091247526	-1.164163	0.52602699	0.19740504	-1.5148978	0.47335077	0.034797182	-1.1672707	0.50442896	0.07061912	-1.4026129	0.87623395	-0.13864764	-1.3692393	0.8757725	0.23154997	-1.2973221	0.95071308	-0.085855382	-1.2908836	0.95626078	0.15387847	-1.4555671	1.0170823	0.042870414	-1.258689	1.408228	-0.11666443	-1.295385	1.4118206	0.20828436	-1.3357137	1.4630924	0.044348307	-1.3555778	1.0453551	-0.20249395	NaN	NaN	NaN	-1.1012827	0.94237795	-0.18206519	-1.3665461	0.84369496	0.33602736
10	0.036	-1.5123907	0.036476963	0.0078283475	-0.92061229	0.098571647	0.12649758	-1.6612149	0.080198741	-0.026443384	-1.0713523	0.071854787	0.15731061	-1.6346787	0.09806934	0.066751192	-1.0663826	0.11143237	0.066781985	NaN	NaN	NaN	-1.1207411	0.030491434	0.10389642	-1.5119281	0.47043136	-0.091233714	-1.1578069	0.52444768	0.19766387	-1.5119241	0.4733407	0.034853688	-1.1602619	0.50273495	0.070679227	-1.396764	0.87505485	-0.13825347	-1.3629434	0.87409395	0.2318416	-1.2911081	0.94934822	-0.085661841	-1.2844677	0.95487358	0.1541017	-1.449365	1.0152914	0.043140511	-1.252701	1.4068496	-0.11634061	-1.2894889	1.4102985	0.20859846	-1.3293861	1.4617682	0.04570477	-1.3482153	1.0434958	-0.2023725	NaN	NaN	NaN	-1.0930461	0.94277892	-0.18125159	-1.3599497	0.84198917	0.33632011
11	0.04	-1.5123359	0.036416711	0.0077981194	-0.90481443	0.10230967	0.12687202	-1.6608905	0.08104491	-0.026350159	-1.0549978	0.072391657	0.15755399	-1.6336509	0.098892739	0.066534481	-1.0508083	0.11203806	0.067019553	NaN	NaN	NaN	-1.1034829	0.029840779	0.10416977	-1.5087979	0.47037135	-0.09120517	-1.1513641	0.5228292	0.19789002	-1.5086715	0.47327789	0.034877355	-1.1532753	0.50104315	0.070735538	-1.3908793	0.87385142	-0.13787783	-1.3565313	0.87239262	0.23213381	-1.284885	0.94797	-0.085468697	-1.2779792	0.9534953	0.15434341	-1.4430746	1.013514	0.04357551	-1.2466934	1.4054508	-0.11599836	-1.2835279	1.4087641	0.20892208	-1.3232011	1.4604508	0.046585708	-1.3408562	1.041627	-0.20220396	NaN	NaN	NaN	-1.0848569	0.94309022	-0.18043119	-1.3533935	0.8402771	0.33661762
